<mxfile host="app.diagrams.net" modified="2024-06-18T02:51:45.667Z" agent="Mozilla/5.0 (Windows NT 10.0; Win64; x64) AppleWebKit/537.36 (KHTML, like Gecko) Chrome/109.0.0.0 Safari/537.36" etag="GYQZFPlIE8LYkCC8cEjy" version="24.5.5" type="github">
  <diagram name="Page-1" id="-tlhxsuFQVroMp-Yx3TY">
    <mxGraphModel dx="1434" dy="707" grid="1" gridSize="10" guides="1" tooltips="1" connect="1" arrows="1" fold="1" page="1" pageScale="1" pageWidth="850" pageHeight="1100" math="0" shadow="0">
      <root>
        <mxCell id="0" />
        <mxCell id="1" parent="0" />
        <mxCell id="dWwbImULdUiK3TYu0daH-1" value="PatternTest" style="swimlane;fontStyle=1;align=center;verticalAlign=top;childLayout=stackLayout;horizontal=1;startSize=29.2;horizontalStack=0;resizeParent=1;resizeParentMax=0;resizeLast=0;collapsible=0;marginBottom=0;" vertex="1" parent="1">
          <mxGeometry x="120" y="162" width="158" height="66.2" as="geometry" />
        </mxCell>
        <mxCell id="dWwbImULdUiK3TYu0daH-2" style="line;strokeWidth=1;fillColor=none;align=left;verticalAlign=middle;spacingTop=-1;spacingLeft=3;spacingRight=3;rotatable=0;labelPosition=right;points=[];portConstraint=eastwest;strokeColor=inherit;" vertex="1" parent="dWwbImULdUiK3TYu0daH-1">
          <mxGeometry y="29.2" width="158" height="8" as="geometry" />
        </mxCell>
        <mxCell id="dWwbImULdUiK3TYu0daH-3" value="+void main(String[])" style="text;strokeColor=none;fillColor=none;align=left;verticalAlign=top;spacingLeft=4;spacingRight=4;overflow=hidden;rotatable=0;points=[[0,0.5],[1,0.5]];portConstraint=eastwest;" vertex="1" parent="dWwbImULdUiK3TYu0daH-1">
          <mxGeometry y="37.2" width="158" height="29" as="geometry" />
        </mxCell>
        <mxCell id="dWwbImULdUiK3TYu0daH-4" value="&lt;&lt;Client&gt;&gt;&#xa;LegacyBank" style="swimlane;fontStyle=1;align=center;verticalAlign=top;childLayout=stackLayout;horizontal=1;startSize=48;horizontalStack=0;resizeParent=1;resizeParentMax=0;resizeLast=0;collapsible=0;marginBottom=0;" vertex="1" parent="1">
          <mxGeometry x="120" y="340" width="185" height="88" as="geometry" />
        </mxCell>
        <mxCell id="dWwbImULdUiK3TYu0daH-5" style="line;strokeWidth=1;fillColor=none;align=left;verticalAlign=middle;spacingTop=-1;spacingLeft=3;spacingRight=3;rotatable=0;labelPosition=right;points=[];portConstraint=eastwest;strokeColor=inherit;" vertex="1" parent="dWwbImULdUiK3TYu0daH-4">
          <mxGeometry y="48" width="185" height="8" as="geometry" />
        </mxCell>
        <mxCell id="dWwbImULdUiK3TYu0daH-6" value="+void process(Payment)" style="text;strokeColor=none;fillColor=none;align=left;verticalAlign=top;spacingLeft=4;spacingRight=4;overflow=hidden;rotatable=0;points=[[0,0.5],[1,0.5]];portConstraint=eastwest;" vertex="1" parent="dWwbImULdUiK3TYu0daH-4">
          <mxGeometry y="56" width="185" height="32" as="geometry" />
        </mxCell>
        <mxCell id="dWwbImULdUiK3TYu0daH-7" value="&lt;&lt;interface&gt;&gt;&#xa;&lt;&lt;Subject&gt;&gt;&#xa;Payment" style="swimlane;fontStyle=1;align=center;verticalAlign=top;childLayout=stackLayout;horizontal=1;startSize=54.857142857142854;horizontalStack=0;resizeParent=1;resizeParentMax=0;resizeLast=0;collapsible=0;marginBottom=0;" vertex="1" parent="1">
          <mxGeometry x="328" y="150" width="259" height="89.85714285714286" as="geometry" />
        </mxCell>
        <mxCell id="dWwbImULdUiK3TYu0daH-8" style="line;strokeWidth=1;fillColor=none;align=left;verticalAlign=middle;spacingTop=-1;spacingLeft=3;spacingRight=3;rotatable=0;labelPosition=right;points=[];portConstraint=eastwest;strokeColor=inherit;" vertex="1" parent="dWwbImULdUiK3TYu0daH-7">
          <mxGeometry y="54.857142857142854" width="259" height="8" as="geometry" />
        </mxCell>
        <mxCell id="dWwbImULdUiK3TYu0daH-9" value="+void makePayment(String,String)" style="text;strokeColor=none;fillColor=none;align=left;verticalAlign=top;spacingLeft=4;spacingRight=4;overflow=hidden;rotatable=0;points=[[0,0.5],[1,0.5]];portConstraint=eastwest;" vertex="1" parent="dWwbImULdUiK3TYu0daH-7">
          <mxGeometry y="62.857142857142854" width="259" height="27" as="geometry" />
        </mxCell>
        <mxCell id="dWwbImULdUiK3TYu0daH-10" value="&lt;&lt;RealSubject&gt;&gt;&#xa;PaymentService" style="swimlane;fontStyle=1;align=center;verticalAlign=top;childLayout=stackLayout;horizontal=1;startSize=48;horizontalStack=0;resizeParent=1;resizeParentMax=0;resizeLast=0;collapsible=0;marginBottom=0;" vertex="1" parent="1">
          <mxGeometry x="596.5" y="315.07" width="233.5" height="88" as="geometry" />
        </mxCell>
        <mxCell id="dWwbImULdUiK3TYu0daH-11" style="line;strokeWidth=1;fillColor=none;align=left;verticalAlign=middle;spacingTop=-1;spacingLeft=3;spacingRight=3;rotatable=0;labelPosition=right;points=[];portConstraint=eastwest;strokeColor=inherit;" vertex="1" parent="dWwbImULdUiK3TYu0daH-10">
          <mxGeometry y="48" width="233.5" height="8" as="geometry" />
        </mxCell>
        <mxCell id="dWwbImULdUiK3TYu0daH-12" value="+void makePayment(String,String)" style="text;strokeColor=none;fillColor=none;align=left;verticalAlign=top;spacingLeft=4;spacingRight=4;overflow=hidden;rotatable=0;points=[[0,0.5],[1,0.5]];portConstraint=eastwest;" vertex="1" parent="dWwbImULdUiK3TYu0daH-10">
          <mxGeometry y="56" width="233.5" height="32" as="geometry" />
        </mxCell>
        <mxCell id="dWwbImULdUiK3TYu0daH-13" value="&lt;&lt;ProxySubject&gt;&gt;&#xa;PaymentGateway" style="swimlane;fontStyle=1;align=center;verticalAlign=top;childLayout=stackLayout;horizontal=1;startSize=42.599999999999994;horizontalStack=0;resizeParent=1;resizeParentMax=0;resizeLast=0;collapsible=0;marginBottom=0;" vertex="1" parent="1">
          <mxGeometry x="307.5" y="468.01" width="276" height="134.6" as="geometry" />
        </mxCell>
        <mxCell id="dWwbImULdUiK3TYu0daH-14" style="line;strokeWidth=1;fillColor=none;align=left;verticalAlign=middle;spacingTop=-1;spacingLeft=3;spacingRight=3;rotatable=0;labelPosition=right;points=[];portConstraint=eastwest;strokeColor=inherit;" vertex="1" parent="dWwbImULdUiK3TYu0daH-13">
          <mxGeometry y="42.599999999999994" width="276" height="8" as="geometry" />
        </mxCell>
        <mxCell id="dWwbImULdUiK3TYu0daH-15" value="+makePayment(data: String) : : void" style="text;strokeColor=none;fillColor=none;align=left;verticalAlign=top;spacingLeft=4;spacingRight=4;overflow=hidden;rotatable=0;points=[[0,0.5],[1,0.5]];portConstraint=eastwest;" vertex="1" parent="dWwbImULdUiK3TYu0daH-13">
          <mxGeometry y="50.599999999999994" width="276" height="28" as="geometry" />
        </mxCell>
        <mxCell id="dWwbImULdUiK3TYu0daH-16" value="-additionCheck() : : void" style="text;strokeColor=none;fillColor=none;align=left;verticalAlign=top;spacingLeft=4;spacingRight=4;overflow=hidden;rotatable=0;points=[[0,0.5],[1,0.5]];portConstraint=eastwest;" vertex="1" parent="dWwbImULdUiK3TYu0daH-13">
          <mxGeometry y="78.6" width="276" height="28" as="geometry" />
        </mxCell>
        <mxCell id="dWwbImULdUiK3TYu0daH-17" value="-additionLogs() : : void" style="text;strokeColor=none;fillColor=none;align=left;verticalAlign=top;spacingLeft=4;spacingRight=4;overflow=hidden;rotatable=0;points=[[0,0.5],[1,0.5]];portConstraint=eastwest;" vertex="1" parent="dWwbImULdUiK3TYu0daH-13">
          <mxGeometry y="106.6" width="276" height="28" as="geometry" />
        </mxCell>
        <mxCell id="dWwbImULdUiK3TYu0daH-18" value="New Proxy Flow " style="align=left;spacingLeft=4;" vertex="1" parent="1">
          <mxGeometry x="381" y="55" width="129" height="34" as="geometry" />
        </mxCell>
        <mxCell id="dWwbImULdUiK3TYu0daH-19" value="" style="curved=1;dashed=1;startArrow=none;endArrow=none;exitX=0.11;exitY=1;entryX=0.5;entryY=0;rounded=0;" edge="1" parent="1" source="dWwbImULdUiK3TYu0daH-7" target="dWwbImULdUiK3TYu0daH-4">
          <mxGeometry relative="1" as="geometry">
            <Array as="points">
              <mxPoint x="288" y="289" />
            </Array>
          </mxGeometry>
        </mxCell>
        <mxCell id="dWwbImULdUiK3TYu0daH-20" value="implements" style="curved=1;dashed=1;startArrow=block;startSize=16;startFill=0;endArrow=none;exitX=0.861;exitY=1.19;entryX=0.5;entryY=0;rounded=0;exitDx=0;exitDy=0;exitPerimeter=0;" edge="1" parent="1" target="dWwbImULdUiK3TYu0daH-13">
          <mxGeometry relative="1" as="geometry">
            <Array as="points">
              <mxPoint x="445.5" y="434.01" />
            </Array>
            <mxPoint x="438.499" y="239.8571428571429" as="sourcePoint" />
          </mxGeometry>
        </mxCell>
        <mxCell id="dWwbImULdUiK3TYu0daH-22" value="paymentService" style="curved=1;startArrow=none;endArrow=open;endSize=12;exitX=1;exitY=0.5;entryX=0.541;entryY=1.063;rounded=0;exitDx=0;exitDy=0;entryDx=0;entryDy=0;entryPerimeter=0;" edge="1" parent="1" source="dWwbImULdUiK3TYu0daH-15" target="dWwbImULdUiK3TYu0daH-12">
          <mxGeometry relative="1" as="geometry">
            <Array as="points">
              <mxPoint x="673" y="508" />
            </Array>
          </mxGeometry>
        </mxCell>
        <mxCell id="dWwbImULdUiK3TYu0daH-23" value="1" style="edgeLabel;resizable=0;labelBackgroundColor=none;fontSize=12;align=left;verticalAlign=bottom;" vertex="1" parent="dWwbImULdUiK3TYu0daH-22">
          <mxGeometry x="1" relative="1" as="geometry" />
        </mxCell>
        <mxCell id="dWwbImULdUiK3TYu0daH-24" value="implements" style="curved=1;dashed=1;startArrow=block;startSize=16;startFill=0;endArrow=none;exitX=1;exitY=0.5;entryX=0.5;entryY=0;rounded=0;exitDx=0;exitDy=0;" edge="1" parent="1">
          <mxGeometry relative="1" as="geometry">
            <Array as="points">
              <mxPoint x="743.5" y="281.08" />
            </Array>
            <mxPoint x="583.5" y="209.99857142857144" as="sourcePoint" />
            <mxPoint x="744" y="315.07" as="targetPoint" />
          </mxGeometry>
        </mxCell>
      </root>
    </mxGraphModel>
  </diagram>
</mxfile>
